<?xml version="1.0" standalone="no"?>
<!DOCTYPE svg PUBLIC "-//W3C//DTD SVG 1.1//EN" "http://www.w3.org/Graphics/SVG/1.1/DTD/svg11.dtd" >
<svg xmlns="http://www.w3.org/2000/svg">
<metadata>Generated by IcoMoon</metadata>
<defs>
<font id="icomoon" horiz-adv-x="1024">
<font-face units-per-em="1024" ascent="960" descent="-64" />
<missing-glyph horiz-adv-x="1024" />
<glyph unicode="&#x20;" horiz-adv-x="512" d="" />
<glyph unicode="&#xe900;" glyph-name="morea" d="M202.785 892.582l615.588-421.827-615.588-421.827z" />
<glyph unicode="&#xe901;" glyph-name="daohai" d="M894.185 831.976l-764.371-317.72 316.185-132 125.861-316.185z" />
<glyph unicode="&#xe902;" glyph-name="jieshao" d="M823.296 899.584q65.536 0 99.328-38.4t33.792-93.696v-543.744q0-25.6-21.504-46.080l-171.008-163.84q-13.312-11.264-22.528-14.336t-23.552-3.072h-459.776q-23.552 0-47.104 9.728t-41.984 27.648-30.208 43.008-11.776 55.808v634.88q0 60.416 33.28 96.256t94.72 35.84h568.32zM608.256 257.536q13.312 0 22.528 9.216t9.216 22.528q0 14.336-9.216 23.040t-22.528 8.704h-320.512q-13.312 0-22.528-8.704t-9.216-23.040q0-13.312 9.216-22.528t22.528-9.216h320.512zM736.256 450.048q13.312 0 22.528 9.216t9.216 22.528-9.216 22.528-22.528 9.216h-448.512q-13.312 0-22.528-9.216t-9.216-22.528 9.216-22.528 22.528-9.216h448.512zM799.744 641.536q13.312 0 22.528 9.216t9.216 23.552q0 13.312-9.216 22.528t-22.528 9.216h-512q-13.312 0-22.528-9.216t-9.216-22.528q0-14.336 9.216-23.552t22.528-9.216h512z" />
<glyph unicode="&#xe903;" glyph-name="shengming" d="M187.392 889.344q28.672 0 48.64-19.456t19.968-48.128v-52.224q0-28.672-19.968-48.64t-48.64-19.968h-54.272q-27.648 0-47.616 19.968t-19.968 48.64v52.224q0 28.672 19.968 48.128t47.616 19.456h54.272zM889.856 889.344q27.648 0 47.616-19.456t19.968-48.128v-52.224q0-28.672-19.968-48.64t-47.616-19.968h-437.248q-28.672 0-48.64 19.968t-19.968 48.64v52.224q0 28.672 19.968 48.128t48.64 19.456h437.248zM187.392 570.88q28.672 0 48.64-19.968t19.968-48.64v-52.224q0-27.648-19.968-47.616t-48.64-19.968h-54.272q-27.648 0-47.616 19.968t-19.968 47.616v52.224q0 28.672 19.968 48.64t47.616 19.968h54.272zM889.856 570.88q27.648 0 47.616-19.968t19.968-48.64v-52.224q0-27.648-19.968-47.616t-47.616-19.968h-437.248q-28.672 0-48.64 19.968t-19.968 47.616v52.224q0 28.672 19.968 48.64t48.64 19.968h437.248zM187.392 251.392q28.672 0 48.64-19.968t19.968-47.616v-52.224q0-28.672-19.968-48.64t-48.64-19.968h-54.272q-27.648 0-47.616 19.968t-19.968 48.64v52.224q0 27.648 19.968 47.616t47.616 19.968h54.272zM889.856 251.392q27.648 0 47.616-19.968t19.968-47.616v-52.224q0-28.672-19.968-48.64t-47.616-19.968h-437.248q-28.672 0-48.64 19.968t-19.968 48.64v52.224q0 27.648 19.968 47.616t48.64 19.968h437.248z" />
<glyph unicode="&#xe904;" glyph-name="Android" d="M704.134 584.482c1.17 9.72 0.024 10.863-9.571 10.863-61.034 0.013-122.066 0.008-183.099 0.003-60.803-0.003-121.607 0.002-182.41-0.008-11.116 0-11.121-0.028-11.121-10.995 0.012-104.399 0.025-208.799 0.041-313.197 0-2.293-0.046-4.593 0.090-6.881 1.129-19.046 14.948-32.264 34.036-32.477 9.865-0.106 19.733-0.145 29.598-0.002 5.168 0.072 7.7-2.13 7.679-7.325-0.119-30.283-0.188-60.564-0.325-90.846-0.094-21.054 8.294-33.428 26.432-37.114 11.925-2.426 24.197-2.038 36.243 0.137 12.987 2.347 25.012 19.965 24.81 31.238-0.573 31.882-0.027 63.783-0.24 95.676-0.043 6.374 2.24 8.411 8.444 8.308 17.663-0.284 35.332-0.089 53-0.1 10.854-0.008 11.336-0.446 11.349-11.181 0.035-30.515-0.067-61.035 0.070-91.55 0.081-17.728 11.276-31.103 28.596-33.121 9.248-1.080 18.691-1.772 28.091-0.552 3.683 0.479 7.12 1.379 10.49 3.028 14.363 7.017 19.641 19.268 19.71 34.321 0.137 30.056 0.008 60.112 0.047 90.171 0.011 8.465 0.447 8.83 9.061 8.871 9.406 0.043 18.821-0.199 28.22 0.083 14.972 0.451 31.392 15.612 30.77 29.992-0.517 11.972 0.556 23.8 0.566 35.693 0.085 89.943 0.011 179.885 0.128 269.828 0.008 5.738-1.403 11.338-0.704 17.136zM326.757 617.376c61.252-0.019 122.506-0.011 183.759-0.019 61.483-0.008 122.965-0.025 184.449 0.008 9.177 0.003 9.882 1.091 6.881 9.435-16.586 46.131-45.537 82.227-87.434 107.833-6.599 4.035-7.151 6.851-2.862 13.399 4.772 7.286 9.549 14.568 14.218 21.919 4.419 6.962 8.792 13.956 12.998 21.045 1.968 3.318 1.893 6.606-1.687 9.043-3.661 2.493-6.524 0.955-8.965-1.96-1.173-1.399-2.075-3.023-3.119-4.531-9.634-13.951-17.406-29.083-27.413-42.813-2.856-3.92-5.362-4.718-9.742-2.774-6.273 2.78-12.686 5.469-19.296 7.233-45.594 12.17-90.632 11.54-134.719-6.748-4.095-1.699-6.862-1.024-9.212 2.853-4.396 7.255-9.056 14.348-13.623 21.499-5.307 8.305-10.595 16.623-15.963 24.887-2.202 3.389-5.27 4.365-8.899 2.367-3.855-2.12-3.936-5.259-2.003-8.784 1.211-2.21 2.277-4.512 3.634-6.626 7.553-11.758 15.175-23.472 22.775-35.2 4.653-7.18 4.186-10.118-2.573-13.991-16.814-9.64-32.043-21.204-45.264-35.493-19.596-21.18-34.293-45.224-43.512-72.56-3.168-9.401-2.6-10.020 7.573-10.022zM590.503 699.55c9.733 0.062 20.058-9.9 20.369-19.656 0.319-9.975-9.907-20.707-19.957-20.947-10.327-0.244-20.327 9.497-20.633 20.101-0.282 9.763 10.246 20.437 20.221 20.502zM427.754 696.636c9.661 0.448 18.359-9.684 18.3-20.23-0.057-10.616-8.701-19.986-18.598-20.163-10.354-0.186-20.012 9.534-20.047 20.174-0.777 12.859 9.287 19.702 20.344 20.218zM815.055 486.447c-0.003 19.255 0.335 38.518-0.171 57.758-0.354 13.445-6.057 23.738-18.875 30.258-10.108 5.141-20.438 4.313-30.883 4.327-22.681 0.027-36.867-14.242-36.895-36.929-0.040-31.629-0.010-63.261-0.013-94.893-0.004-32.32 0.016-64.637-0.013-96.957-0.012-13.464 5.282-23.585 17.162-30.686 11.149-6.666 23.015-5.047 34.795-4.485 3.599 0.172 7.599-1.075 10.753 0.476 15.26 7.516 24.419 18.849 24.262 37.045-0.388 44.691-0.117 89.391-0.121 134.087zM256.934 578.825c-5.275-0.024-10.551 0.038-15.826-0.005-23.113-0.188-39.506-18.456-37.013-41.536 0.618-5.724 0.843-11.422 0.843-17.155 0-27.296 0-54.59 0.002-81.885 0.002-30.048-0.091-60.097 0.045-90.145 0.059-13.070 6.397-22.253 17.688-28.908 11.63-6.851 24.090-5.435 36.218-4.355 20.503 1.816 32.988 16.458 32.846 36.996-0.087 12.369-1.053 24.735-0.976 37.098 0.32 51.589-1.214 103.194 1.025 154.767 0.96 22.096-19.891 35.197-34.852 35.129z" />
<glyph unicode="&#xe905;" glyph-name="chengguo" d="M512 820.364c-179.2 0-325.818-146.618-325.818-325.818 0-109.382 53.527-209.455 144.291-269.964v-90.764c0-32.582 25.6-58.182 58.182-58.182h246.691c32.582 0 58.182 25.6 58.182 58.182v90.764c90.764 60.509 144.291 162.909 144.291 269.964 0 179.2-146.618 325.818-325.818 325.818zM481.745 638.836c0 16.291 13.964 32.582 30.255 32.582h2.327c9.309 0 16.291-2.327 20.945-9.309 6.982-6.982 9.309-13.964 9.309-23.273v-23.273c0-16.291-13.964-32.582-30.255-32.582h-2.327c-16.291 0-30.255 13.964-30.255 32.582v23.273zM349.091 578.327c-4.655 6.982-4.655 16.291-2.327 23.273 2.327 9.309 6.982 13.964 13.964 18.618l2.327 2.327c4.655 2.327 9.309 4.655 16.291 4.655 11.636 0 20.945-6.982 27.927-16.291l11.636-20.945c4.655-6.982 4.655-16.291 2.327-23.273-2.327-9.309-6.982-13.964-13.964-18.618l-2.327-2.327c-4.655-2.327-9.309-4.655-16.291-4.655-11.636 0-20.945 6.982-27.927 16.291l-11.636 20.945zM637.673 420.073l-86.109-48.873v-114.036c0-20.945-18.618-39.564-39.564-39.564s-39.564 18.618-39.564 39.564v114.036l-86.109 48.873c-18.618 11.636-25.6 34.909-13.964 53.527s34.909 25.6 53.527 13.964l86.109-48.873 86.109 48.873c18.618 11.636 44.218 4.655 53.527-13.964s4.655-44.218-13.964-53.527zM686.545 578.327l-11.636-20.945c-4.655-9.309-16.291-16.291-27.927-16.291-4.655 0-11.636 2.327-16.291 4.655l-2.327 2.327c-6.982 4.655-11.636 11.636-13.964 18.618-2.327 9.309 0 16.291 2.327 23.273l11.636 20.945c4.655 9.309 16.291 16.291 27.927 16.291 4.655 0 11.636-2.327 16.291-4.655l2.327-2.327c6.982-4.655 11.636-11.636 13.964-18.618 4.655-6.982 2.327-13.964-2.327-23.273z" />
<glyph unicode="&#xe906;" glyph-name="map" d="M801.999 612.87c0 152.773-138.191 276.63-291.783 276.63s-287.992-123.856-287.992-276.63c0-141.658 284.775-480.848 284.775-480.848s295 334.456 295 480.848v0 0zM418.426 603.087c0 52.268 43.308 94.689 96.65 94.689 53.407 0 96.649-42.355 96.649-94.689s-43.305-94.694-96.649-94.694c-53.342 0.063-96.65 42.422-96.65 94.694v0 0zM607.621 123.751c0.825-2.466 1.267-5.050 1.267-7.575 0-26.137-43.308-47.35-96.653-47.35-53.341 0-96.649 21.213-96.649 47.35 0 2.586 0.443 5.109 1.262 7.575-58.519-10.859-97.911-31.377-97.911-54.925 0-34.909 86.55-63.127 193.299-63.127 106.755 0 193.303 28.218 193.303 63.127-0.064 23.548-39.457 44.066-97.918 54.925v0 0z" />
<glyph unicode="&#xe907;" glyph-name="more" d="M245.146 908.527c-111.155-9.66-193.946-107.657-193.946-219.238v-3.977c0-111.787 90.163-202.001 201.37-202.001h190.532c18.851 0 34.133 15.282 34.133 34.133v178.893c0 123.938-105.847 223.164-232.090 212.19zM759.774 909.346c-117.641 0-213.026-95.369-213.026-213.009v-178.893c0-18.851 15.282-34.133 34.133-34.133h178.893c117.658 0 213.026 95.386 213.026 213.026s-95.369 213.009-213.026 213.009zM51.2 199.578c0.051-117.572 95.351-212.873 212.924-212.924 118.716-0.051 213.111 100.625 213.111 219.341v154.778c0 36.693-15.241 51.917-34.082 51.917h-172.612c-118.716 0-219.392-94.396-219.341-213.111zM752.725 412.689h-171.827c-18.851 0-34.133-15.282-34.133-34.133v-178.893c0-117.641 95.369-213.009 213.009-213.009 118.972 0 215.159 97.536 212.975 217.003-2.133 117.265-102.741 209.033-220.023 209.033z" />
<glyph unicode="&#xe908;" glyph-name="kaifa" d="M0-7.111v113.778h1024v-113.778h-1024zM0 903.111h1024v-739.556h-1024v739.556zM910.222 277.333v512h-789.732l-6.713-512h796.444zM220.672 545.109l120.661 120.661 40.22-40.22-120.661-120.661 120.661-120.661-40.22-40.22-160.882 160.882 40.22 40.22zM604.956 742.969l-131.47-435.712-54.5 16.441 131.527 435.712 54.443-16.441zM671.687 674.645l180.679-169.756-180.679-169.756-45.17 42.439 135.509 127.317-135.509 127.317 45.17 42.439z" />
<glyph unicode="&#xe909;" glyph-name="zhishu" d="M1023.705 864.029c0 52.984-42.987 95.971-95.971 95.971s-95.97-42.987-95.97-95.971c0-31.928 15.745-60.013 39.738-77.414l-140.394-466.855c-12.747-0.623-24.744-3.687-35.678-8.747l-318.838 324.493c4.687 11.246 7.31 23.586 7.31 36.582 0 52.983-42.986 95.971-95.97 95.971s-95.971-42.988-95.971-95.971c0-31.021 14.932-58.294 37.738-75.822l-138.77-468.508c-50.61-2.686-90.909-44.239-90.909-95.47 0-52.984 42.986-95.972 95.971-95.972 52.984 0 95.97 42.988 95.97 95.972 0 31.926-15.745 59.918-39.675 77.412l138.27 466.667c15.62 0.469 30.052 4.75 42.925 11.716l316.339-321.994c-6.248-12.684-9.997-26.741-9.997-41.863 0-52.981 42.986-95.969 95.97-95.969 52.983 0 95.97 42.988 95.97 95.969 0 31.805-15.621 59.672-39.425 77.163l140.457 467.168c50.61 2.687 90.909 44.237 90.909 95.472z" />
<glyph unicode="&#xe90a;" glyph-name="tall" d="M281.634 789.47c20.48 12.151 170.257-129.092 167.322-162.85-2.97-33.724-84.378-95.369-84.378-108.578s4.437-60.143 74.035-129.092c69.598-68.983 131.789-96.836 148.070-95.369s88.849 88.030 105.131 89.498 140.663-80.691 161.382-171.657c4.437-17.647-74.035-105.609-179.166-105.609s-242.825 77.756-344.986 178.961c-102.161 101.239-272.452 371.166-47.411 504.695z" />
<glyph unicode="&#xe90b;" glyph-name="pingfen" d="M511.043 844.692l121.498-274.324 298.322-31.959-223.36-200.325 61.788-293.586-259.528 150.528-260.132-149.504 62.956 293.361-222.556 201.196 298.429 30.776 122.583 273.838z" />
<glyph unicode="&#xe90c;" glyph-name="iphone" d="M804.997 415.854c1.488-154.847 142.427-206.377 144.069-207.096-1.283-3.541-22.583-73.446-74.37-145.66-44.755-62.411-91.102-124.463-164.24-125.746-71.957-1.283-95.002 40.649-177.225 40.649-82.171 0-107.885-39.366-175.89-41.932-70.52-2.566-124.309 67.338-169.423 129.493-92.282 127.183-162.7 359.326-68.057 516.020 46.962 77.86 130.981 127.080 222.083 128.415 69.34 1.18 134.83-44.601 177.122-44.601 42.446 0 121.948 55.020 205.556 46.962 34.952-1.386 133.239-13.447 196.318-101.418-5.030-3.131-117.277-65.337-115.943-195.086zM510.598 724.008c-8.109 58.87 22.275 120.049 56.971 158.491 38.75 43.267 104.138 75.448 158.132 77.501 6.929-59.947-18.426-120.152-55.841-163.521-37.518-43.216-99.006-76.936-159.261-72.471z" />
<glyph unicode="&#xe90d;" glyph-name="index" horiz-adv-x="1030" d="M996.71 518.021l-387.277 403.169c-24.069 25.032-56.233 38.81-90.711 38.81s-66.642-13.778-90.706-38.81l-387.277-403.169c-39.962-41.615-34.816-77.583-28.211-92.611 4.705-10.66 20.603-39.962 66.396-39.962h56.765v-310.159c0-70.415 50.56-136.719 122.414-136.719h164.859v328.238c0 35.195-5.33 54.799 30.612 54.799h130.294c35.937 0 30.612-19.604 30.612-54.799v-328.238h164.869c71.849 0 122.404 66.304 122.404 136.719v310.159h56.771c45.778 0 61.686 29.302 66.396 39.962 6.615 15.022 11.75 50.995-28.211 92.611z" />
<glyph unicode="&#xe90e;" glyph-name="datatile" d="M881.778-64h-739.556c-31.403 0-56.889 25.486-56.889 56.889v796.444c0 31.403 25.486 56.889 56.889 56.889h113.778c0-31.403 25.486-56.889 56.889-56.889h398.222c31.403 0 56.889 25.486 56.889 56.889h113.778c31.403 0 56.889-25.486 56.889-56.889v-796.444c0-31.403-25.486-56.889-56.889-56.889zM768 675.556h-512c-31.403 0-56.889-25.486-56.889-56.889s25.486-56.889 56.889-56.889h512c31.403 0 56.889 25.486 56.889 56.889s-25.486 56.889-56.889 56.889zM768 448h-512c-31.403 0-56.889-25.486-56.889-56.889s25.486-56.889 56.889-56.889h512c31.403 0 56.889 25.486 56.889 56.889s-25.486 56.889-56.889 56.889zM768 220.444h-512c-31.403 0-56.889-25.486-56.889-56.889s25.486-56.889 56.889-56.889h512c31.403 0 56.889 25.486 56.889 56.889s-25.486 56.889-56.889 56.889zM654.222 846.222h-284.444c-31.403 0-56.889 25.486-56.889 56.889s25.486 56.889 56.889 56.889h284.444c31.403 0 56.889-25.486 56.889-56.889s-25.486-56.889-56.889-56.889z" />
<glyph unicode="&#xe90f;" glyph-name="soso" d="M726.624 497.945c0 157.152-123.572 284.307-276.248 284.307s-276.248-127.155-276.248-284.307c0-156.705 123.572-283.859 276.248-283.859s276.248 127.154 276.248 283.859zM864.524 16.189l-168.345 172.823-1.344 1.791c-66.711-55.966-151.78-89.545-244.46-89.545-213.566 0-386.389 177.748-386.389 396.687 0 219.387 172.823 397.134 386.389 397.134 213.118 0 386.389-177.748 386.389-397.134 0-82.829-25.073-159.838-67.16-223.416l5.372-4.477 168.345-172.823c21.49-22.386 21.49-58.652 0-81.039-21.937-21.939-56.86-21.939-78.799 0z" />
<glyph unicode="&#xe910;" glyph-name="news" d="M896.874 175.081c-3.19 74.080-40.154 139.807-95.823 182.151v201.030c0 116.118-83.070 213.794-192.839 236.872v4.595c0 52.971-43.441 96.305-96.535 96.305v0c-53.093 0-96.533-43.335-96.533-96.305v-4.595c-109.771-23.078-192.839-120.754-192.839-236.872v-201.030c-55.672-42.343-92.638-108.070-95.825-182.151h95.825v-0.646h578.746v0.646h95.822zM491.309 0.431h23.962c62.815 0 115.037 47.376 122.628 108.070h-252.174c7.59-60.695 59.816-108.070 122.625-108.070h-17.040z" />
<glyph unicode="&#xe911;" glyph-name="xingxi" d="M823.135 853.484h-627.57c-71.734 0-130.091-63.598-130.091-141.772v-402.31c0-78.171 58.358-141.77 130.091-141.77h20.697v-105.761c0-31.729 23.612-57.548 52.63-57.548 10.321 0 20.582 3.504 29.436 9.966l216.756 153.341h308.055c71.732 0 130.091 63.598 130.091 141.77v402.31c-0.005 78.174-58.362 141.773-130.095 141.773v0zM332.591 552.718c21.367 0 38.688-18.878 38.688-42.163 0-23.283-17.322-42.162-38.688-42.162-21.363 0-38.689 18.878-38.689 42.162-0.001 23.285 17.327 42.163 38.689 42.163v0zM509.352 468.392c-21.367 0-38.689 18.878-38.689 42.162s17.323 42.163 38.689 42.163c21.366 0 38.683-18.878 38.683-42.163s-17.317-42.162-38.683-42.162v0zM686.109 468.392c-21.367 0-38.689 18.878-38.689 42.162s17.323 42.163 38.689 42.163c21.366 0 38.688-18.878 38.688-42.163s-17.323-42.162-38.688-42.162v0z" />
<glyph unicode="&#xe912;" glyph-name="yingyou" d="M486.692 221.32c0-114.043-92.449-206.491-206.491-206.491s-206.492 92.448-206.492 206.491c0 114.042 92.45 206.491 206.492 206.491h206.491v-206.491zM532.58 221.32c0-114.043 92.449-206.491 206.491-206.491s206.491 92.448 206.491 206.491c0 114.042-92.449 206.491-206.491 206.491h-206.491v-206.491zM486.692 680.189c0 114.043-92.449 206.491-206.491 206.491s-206.492-92.448-206.492-206.491 92.45-206.491 206.492-206.491h206.491v206.491zM532.58 680.189v0c0 114.043 92.449 206.491 206.491 206.491s206.491-92.449 206.491-206.491-92.449-206.491-206.491-206.491h-206.491v206.491z" />
<glyph unicode="&#xe913;" glyph-name="API" d="M787.2 659.2h-134.4v121.6l134.4-121.6zM204.8 70.4v761.6h377.6v-204.8c0-19.2 12.8-32 32-32h204.8v-518.4h-614.4zM857.6 0c19.2 0 32 12.8 32 32v627.2l-275.2 243.2h-448c-19.2 0-32-12.8-32-32v-832c0-19.2 12.8-32 32-32h691.2zM403.2 262.4h-83.2l-12.8-38.4h-70.4l89.6 236.8h83.2l89.6-236.8h-83.2l-12.8 38.4zM390.4 313.6l-25.6 83.2-25.6-83.2h51.2zM499.2 460.8h121.6c25.6 0 44.8-6.4 57.6-19.2s19.2-32 19.2-51.2c0-25.6-6.4-44.8-19.2-57.6s-38.4-19.2-64-19.2h-44.8v-89.6h-70.4v236.8zM569.6 358.4h19.2c12.8 0 25.6 0 32 6.4s6.4 12.8 6.4 19.2c0 6.4 0 12.8-6.4 19.2s-12.8 6.4-32 6.4h-19.2v-51.2zM723.2 460.8h70.4v-236.8h-70.4v236.8z" />
</font>
</defs>
</svg>
